<?xml version="1.0" ?><!DOCTYPE svg  PUBLIC '-//W3C//DTD SVG 1.1//EN'  'http://www.w3.org/Graphics/SVG/1.1/DTD/svg11.dtd'><svg enable-background="new 0 0 48 48" height="48px" version="1.1" viewBox="0 0 48 48" width="48px" xml:space="preserve" xmlns="http://www.w3.org/2000/svg" xmlns:xlink="http://www.w3.org/1999/xlink"><g id="Layer_3"><g><circle cx="16.099" cy="4.352" fill="#241F20" r="4.349"/><path d="M19.52,45.336c-7.346,0-13.302-5.951-13.302-13.301c0-3.473,1.343-6.625,3.523-8.993h0.001l0,0    c0.001-0.002,0.002-0.005,0.003-0.005l-0.287-3.385c-0.008,0.007-0.017,0.015-0.024,0.022l-0.641-7.002H3.663    c-0.004,0-0.006-0.002-0.01-0.002c-0.004,0-0.006,0.002-0.01,0.002H3.558H2.289v2.726h1.374v-0.002h2.604l0.63,6.893    c-2.088,2.696-3.339,6.073-3.339,9.747c0,8.814,7.146,15.963,15.961,15.963c5.804,0,10.866-3.107,13.66-7.736l-1.604-2.631    C29.462,42.178,24.865,45.336,19.52,45.336z" fill="#241F20"/><path d="M43.849,34.564c-0.422,0-0.791,0.166-1.102,0.402l-2.358,1.48l-6.243-10.424l-0.298-0.498l-0.018,0.012    c-0.308-0.438-0.496-0.592-0.496-0.592v0.001c-0.529-0.541-1.258-0.875-2.068-0.902l0.008-0.015h-0.888v0.001h-8.927    l-0.794-10.798l-0.054,0.005c-0.276-2.136-2.083-3.793-4.294-3.793c-2.402,0-4.35,1.948-4.35,4.349    c0,0.078,0.02,0.149,0.022,0.226l-0.013,0.001l0.94,12.293h0.006c0.017,0.311,0.065,0.609,0.14,0.9l0.006,0.076l0.016-0.002    c0.514,1.834,2.177,3.186,4.171,3.186h13.603l4.827,8.07l2.311,3.803l7.119-4.604c0.354-0.336,0.595-0.785,0.595-1.309    C45.711,35.402,44.878,34.564,43.849,34.564z" fill="#241F20"/></g></g></svg>