<?xml version="1.0" encoding="UTF-8" standalone="no"?>
<svg
   xmlns:dc="http://purl.org/dc/elements/1.1/"
   xmlns:cc="http://creativecommons.org/ns#"
   xmlns:rdf="http://www.w3.org/1999/02/22-rdf-syntax-ns#"
   xmlns:svg="http://www.w3.org/2000/svg"
   xmlns="http://www.w3.org/2000/svg"
   version="1.1"
   id="Icons"
   x="0px"
   y="0px"
   viewBox="0 0 32 32"
   style="enable-background:new 0 0 32 32;"
   xml:space="preserve"><metadata
   id="metadata37"><rdf:RDF><cc:Work
       rdf:about=""><dc:format>image/svg+xml</dc:format><dc:type
         rdf:resource="http://purl.org/dc/dcmitype/StillImage" /><dc:title></dc:title></cc:Work></rdf:RDF></metadata><defs
   id="defs35">
	
	
	
</defs>
<style
   type="text/css"
   id="style10">
	.st0{fill:none;stroke:#000000;stroke-width:2;stroke-linecap:round;stroke-linejoin:round;stroke-miterlimit:10;}
</style>
<path
   d="M 10,9 H 6 C 3.7333333,9 2,10.3 2,12 v 13 c 0,1.7 1.7333333,3 4,3 h 4 z"
   id="path12"
   style="stroke-width:1.1547" /><rect
   x="10"
   y="9"
   width="12"
   height="19"
   id="rect14" /><path
   d="m 26,9 h -4 v 19 h 4 c 2.266667,0 4,-1.3 4,-3 V 12 C 30,10.3 28.266667,9 26,9 Z"
   id="path16"
   style="stroke-width:1.1547" />
<g
   id="g22">
	<path
   d="M21,11H11c-0.6,0-1-0.4-1-1V8c0-1.7,1.3-3,3-3h6c1.7,0,3,1.3,3,3v2C22,10.6,21.6,11,21,11z M12,9h8V8c0-0.6-0.4-1-1-1h-6   c-0.6,0-1,0.4-1,1V9z"
   id="path20" />
</g>
<g
   id="g26">
	<path
   d="M5,29c-0.6,0-1-0.4-1-1v-1c0-0.6,0.4-1,1-1s1,0.4,1,1v1C6,28.6,5.6,29,5,29z"
   id="path24" />
</g>
<g
   id="g30">
	<path
   d="M27,29c-0.6,0-1-0.4-1-1v-1c0-0.6,0.4-1,1-1s1,0.4,1,1v1C28,28.6,27.6,29,27,29z"
   id="path28" />
</g>
<text
   xml:space="preserve"
   style="font-style:normal;font-variant:normal;font-weight:bold;font-stretch:normal;font-size:14.6667px;line-height:1.25;font-family:sans-serif;-inkscape-font-specification:'sans-serif, Bold';font-variant-ligatures:normal;font-variant-caps:normal;font-variant-numeric:normal;font-variant-east-asian:normal"
   x="4.2659235"
   y="23.814022"
   id="text78"><tspan
     id="tspan76"
     x="4.2659235"
     y="23.814022"
     style="font-style:normal;font-variant:normal;font-weight:bold;font-stretch:normal;font-size:14.6667px;font-family:sans-serif;-inkscape-font-specification:'sans-serif, Bold';font-variant-ligatures:normal;font-variant-caps:normal;font-variant-numeric:normal;font-variant-east-asian:normal;fill:#ffffff">KG</tspan></text></svg>
