<?xml version="1.0" standalone="no"?>
<!DOCTYPE svg PUBLIC "-//W3C//DTD SVG 20010904//EN" "http://www.w3.org/TR/2001/REC-SVG-20010904/DTD/svg10.dtd">
<svg version="1.0" xmlns="http://www.w3.org/2000/svg" width="266.000000pt" height="322.000000pt" viewBox="0 0 266.000000 322.000000" preserveAspectRatio="xMidYMid meet">

  <g transform="translate(0.000000,322.000000) scale(0.100000,-0.100000)" fill="#000000" stroke="none">
    <path d="M2623 3213 c9 -2 23 -2 30 0 6 3 -1 5 -18 5 -16 0 -22 -2 -12 -5z" />
    <path d="M1053 2899 c-85 -74 -91 -83 -98 -149 -3 -36 -5 -555 -3 -1155 2
-902 5 -1094 17 -1115 23 -42 52 -69 82 -75 16 -4 29 -11 29 -16 0 -5 27 -9
60 -9 33 0 60 4 60 9 0 5 15 12 34 15 25 5 43 18 65 48 l31 42 0 1148 0 1149
-22 39 c-13 22 -35 45 -50 51 -16 6 -28 15 -28 20 0 12 -162 10 -177 -2z" />
    <path d="M1545 2899 c-5 -6 -24 -18 -41 -28 -68 -41 -64 33 -64 -1220 0 -936
2 -1137 14 -1164 16 -37 51 -72 84 -82 12 -3 22 -11 22 -16 0 -5 32 -9 70 -9
39 0 70 4 70 9 0 5 15 14 33 20 18 6 43 27 57 48 l25 37 0 1155 0 1156 -28 37
c-15 20 -39 39 -52 42 -14 4 -25 11 -25 16 0 13 -152 12 -165 -1z" />
    <path d="M622 2704 l-22 -15 0 -880 c0 -588 -3 -887 -10 -900 -6 -10 -16 -19
-23 -19 -12 0 -60 -43 -99 -89 -10 -12 -18 -30 -18 -41 0 -18 7 -20 64 -20 40
0 68 -5 74 -13 6 -7 12 -39 14 -72 3 -55 5 -60 30 -69 18 -6 38 -6 55 0 25 9
29 16 35 72 4 34 10 66 13 72 3 5 30 10 60 10 30 0 56 4 59 9 18 28 -56 131
-105 146 -9 3 -20 16 -23 28 -3 12 -6 414 -6 894 l0 872 -22 15 c-12 9 -29 16
-38 16 -9 0 -26 -7 -38 -16z" />
    <path d="M2093 2710 c-12 -5 -26 -18 -32 -29 -8 -13 -11 -295 -11 -896 l0
-876 -43 -27 c-55 -34 -79 -65 -81 -105 -1 -32 -1 -32 59 -37 l60 -5 3 -45 c4
-72 11 -89 42 -105 53 -27 90 9 90 87 0 24 5 49 12 56 7 7 38 12 70 12 58 0
58 0 58 30 0 17 -4 30 -8 30 -5 0 -14 10 -21 23 -7 13 -34 38 -62 55 l-49 33
-2 889 c-2 576 -7 892 -13 898 -17 16 -49 21 -72 12z" />
  </g>
</svg>